<svg id="Group_367" data-name="Group 367" xmlns="http://www.w3.org/2000/svg" width="41.664" height="41.664" viewBox="0 0 41.664 41.664">
  <path id="Path_641" data-name="Path 641" d="M37.758,41.664H3.906A3.911,3.911,0,0,1,0,37.758V3.906A3.911,3.911,0,0,1,3.906,0H37.758a3.911,3.911,0,0,1,3.906,3.906V37.758A3.911,3.911,0,0,1,37.758,41.664ZM3.906,2.6a1.3,1.3,0,0,0-1.3,1.3V37.758a1.3,1.3,0,0,0,1.3,1.3H37.758a1.3,1.3,0,0,0,1.3-1.3V3.906a1.3,1.3,0,0,0-1.3-1.3Zm0,0" fill="#fff"/>
  <path id="Path_642" data-name="Path 642" d="M40.362,242.6H1.3a1.3,1.3,0,0,1,0-2.6h39.06a1.3,1.3,0,0,1,0,2.6Zm0,0" transform="translate(0 -220.47)" fill="#fff"/>
  <path id="Path_643" data-name="Path 643" d="M241.3,41.664a1.3,1.3,0,0,1-1.3-1.3V1.3a1.3,1.3,0,0,1,2.6,0v39.06A1.3,1.3,0,0,1,241.3,41.664Zm0,0" transform="translate(-220.47)" fill="#fff"/>
</svg>
