<svg height="27.979" viewBox="0 0 22.404 27.979" width="22.404" xmlns="http://www.w3.org/2000/svg"><g fill="#fff"><path d="m63.935 85.4h-13.064a2.223 2.223 0 0 0 -2.221 2.221v18.744a2.223 2.223 0 0 0 2.221 2.221h13.064a2.223 2.223 0 0 0 2.221-2.221v-18.744a2.23 2.23 0 0 0 -2.221-2.221zm.662 20.96a.668.668 0 0 1 -.668.668h-13.063a.668.668 0 0 1 -.668-.668v-18.739a.668.668 0 0 1 .668-.668h13.064a.668.668 0 0 1 .668.668z" transform="translate(-48.65 -80.608)"/><path d="m150.735 0h-13.064a2.223 2.223 0 0 0 -2.221 2.221.777.777 0 0 0 1.554 0 .668.668 0 0 1 .668-.668h13.064a.668.668 0 0 1 .668.668v18.745a.668.668 0 0 1 -.668.668.777.777 0 0 0 0 1.554 2.223 2.223 0 0 0 2.221-2.221v-18.746a2.223 2.223 0 0 0 -2.222-2.221z" transform="translate(-130.553)"/></g></svg>