<svg id="Group_24" data-name="Group 24" xmlns="http://www.w3.org/2000/svg" width="13.317" height="14.973" viewBox="0 0 13.317 14.973">
  <path id="Path_28" data-name="Path 28" d="M39.8,2.155H36.686V1.647A1.649,1.649,0,0,0,35.039,0H32.078a1.649,1.649,0,0,0-1.647,1.647v.508H27.316a.416.416,0,1,0,0,.831h.751v9.765a2.226,2.226,0,0,0,2.223,2.223h6.539a2.226,2.226,0,0,0,2.223-2.223V2.986H39.8a.416.416,0,0,0,0-.831Zm-8.54-.508a.817.817,0,0,1,.816-.816h2.961a.817.817,0,0,1,.816.816v.508H31.262Zm6.957,11.1a1.394,1.394,0,0,1-1.391,1.391H30.289A1.394,1.394,0,0,1,28.9,12.751V2.986h9.324v9.765Z" transform="translate(-26.9)" fill="#272d3b"/>
  <path id="Path_29" data-name="Path 29" d="M230.116,153.576a.414.414,0,0,0,.416-.416v-7.345a.416.416,0,1,0-.831,0v7.342A.416.416,0,0,0,230.116,153.576Z" transform="translate(-223.457 -140.924)" fill="#272d3b"/>
  <path id="Path_30" data-name="Path 30" d="M142.016,167.462a.414.414,0,0,0,.416-.416v-6.431a.416.416,0,1,0-.831,0v6.431A.416.416,0,0,0,142.016,167.462Z" transform="translate(-138.069 -155.268)" fill="#272d3b"/>
  <path id="Path_31" data-name="Path 31" d="M318.216,167.462a.414.414,0,0,0,.416-.416v-6.431a.416.416,0,1,0-.831,0v6.431A.414.414,0,0,0,318.216,167.462Z" transform="translate(-308.845 -155.268)" fill="#272d3b"/>
</svg>
