<svg xmlns="http://www.w3.org/2000/svg" width="22.375" height="29.125" viewBox="0 0 22.375 29.125">
  <g id="Icon_ionic-ios-document" data-name="Icon ionic-ios-document" transform="translate(-6.813 -3.438)">
    <path id="Path_584" data-name="Path 584" d="M21.938,10.9h6.4a.348.348,0,0,0,.352-.352h0a2.081,2.081,0,0,0-.752-1.61L22.57,4.465a2.258,2.258,0,0,0-1.448-.52h0a.519.519,0,0,0-.52.52v5.1A1.335,1.335,0,0,0,21.938,10.9Z" fill="none" stroke="#fff" stroke-linecap="round" stroke-width="1"/>
    <path id="Path_585" data-name="Path 585" d="M18.773,9.563V3.938H9.563a2.257,2.257,0,0,0-2.25,2.25V29.813a2.257,2.257,0,0,0,2.25,2.25H26.438a2.257,2.257,0,0,0,2.25-2.25V12.727h-6.75A3.169,3.169,0,0,1,18.773,9.563Z" fill="none" stroke="#fff" stroke-linecap="round" stroke-width="1"/>
  </g>
</svg>
