<svg id="download-1" xmlns="http://www.w3.org/2000/svg" width="16.149" height="14.967" viewBox="0 0 16.149 14.967">
  <g id="Group_21" data-name="Group 21">
    <path id="Path_20" data-name="Path 20" d="M15.687,228.219a.461.461,0,0,0-.463.463v4.209a2.076,2.076,0,0,1-2.073,2.073H3A2.076,2.076,0,0,1,.925,232.89v-4.277a.463.463,0,0,0-.925,0v4.277a3,3,0,0,0,3,3H13.15a3,3,0,0,0,3-3v-4.209A.463.463,0,0,0,15.687,228.219Z" transform="translate(0 -220.922)" fill="#272d3b"/>
    <path id="Path_21" data-name="Path 21" d="M139.305,28.543a.466.466,0,0,0,.326.137.451.451,0,0,0,.326-.137L142.9,25.6a.463.463,0,0,0-.655-.655L140.094,27.1V17.713a.463.463,0,1,0-.925,0V27.1l-2.152-2.152a.463.463,0,0,0-.655.655Z" transform="translate(-131.556 -17.25)" fill="#272d3b"/>
  </g>
</svg>
