<svg height="27.979" viewBox="0 0 25.842 27.979" width="25.842" xmlns="http://www.w3.org/2000/svg"><g fill="#fff"><path d="m154.662 11.714a.8.8 0 0 0 0 1.137l4.262 4.262a.809.809 0 0 0 .565.238.784.784 0 0 0 .565-.238l4.262-4.262a.8.8 0 0 0 -1.137-1.137l-2.887 2.886v-13.8a.8.8 0 0 0 -1.607 0v13.8l-2.885-2.886a.8.8 0 0 0 -1.138 0z" transform="translate(-146.568)"/><path d="m44.112 137.089-2.745-9.862a.8.8 0 0 0 -.432-.5l-.076-.035a.808.808 0 0 0 -.327-.07h-4.948a.783.783 0 1 0 0 1.566h4.416l2.319 8.342h-6.133a.783.783 0 0 0 -.789.783v.708a1.886 1.886 0 0 1 -1.897 1.879h-4.808a1.886 1.886 0 0 1 -1.893-1.88v-.708a.783.783 0 0 0 -.789-.783h-5.893l2.331-8.36h4.416a.783.783 0 1 0 0-1.566h-4.954a.809.809 0 0 0 -.327.07l-.076.035a.779.779 0 0 0 -.432.5l-2.745 9.862a.857.857 0 0 0 -.029.209v4.113a5.677 5.677 0 0 0 5.689 5.65h14.462a5.677 5.677 0 0 0 5.689-5.65v-4.1a.6.6 0 0 0 -.029-.203zm-1.548 4.3a4.1 4.1 0 0 1 -4.112 4.084h-14.463a4.1 4.1 0 0 1 -4.112-4.084v-3.3h5.356a3.462 3.462 0 0 0 3.47 3.365h4.813a3.462 3.462 0 0 0 3.47-3.365h5.59v3.3z" transform="translate(-18.3 -119.064)"/></g></svg>