<svg id="edit" xmlns="http://www.w3.org/2000/svg" width="15.077" height="15.076" viewBox="0 0 15.077 15.076">
  <path id="Path_24" data-name="Path 24" d="M14.1,1A3.325,3.325,0,0,0,9.395,1L.766,9.629a.432.432,0,0,0-.122.247L0,14.612a.43.43,0,0,0,.122.363.439.439,0,0,0,.305.129.349.349,0,0,0,.058,0l2.853-.386a.434.434,0,1,0-.116-.861l-2.287.308.447-3.3,3.476,3.476a.439.439,0,0,0,.305.128.425.425,0,0,0,.305-.128L14.1,5.71A3.323,3.323,0,0,0,14.1,1ZM9.562,2.064l1.449,1.449L3.137,11.387,1.688,9.938ZM5.17,13.417,3.754,12l7.874-7.874,1.417,1.417Zm8.478-8.494L10.182,1.457a2.462,2.462,0,0,1,3.466,3.466Z" transform="translate(0 -0.028)" fill="#272d3b"/>
</svg>
