<svg height="27.471" viewBox="0 0 32 27.471" width="32" xmlns="http://www.w3.org/2000/svg"><path d="m26.86 38.293h-7.582a3.348 3.348 0 0 1 -3.345-3.345.894.894 0 0 0 -.9-.9h-9.893a5.148 5.148 0 0 0 -5.14 5.142v17.19a5.148 5.148 0 0 0 5.14 5.14h21.72a5.148 5.148 0 0 0 5.14-5.139v-12.954a5.143 5.143 0 0 0 -5.14-5.134zm3.34 18.081a3.348 3.348 0 0 1 -3.345 3.345h-21.715a3.348 3.348 0 0 1 -3.34-3.345v-17.184a3.348 3.348 0 0 1 3.34-3.344h9.077a5.149 5.149 0 0 0 5.061 4.243h7.582a3.348 3.348 0 0 1 3.34 3.344z" fill="#2d62ed" transform="translate(0 -34.05)"/></svg>