<svg height="30.534" viewBox="0 0 32 30.534" width="32" xmlns="http://www.w3.org/2000/svg"><path d="m31.7 24.918-15.054-13.467a.423.423 0 0 0 -.086-.066.891.891 0 0 0 -1.2-.02l-15.06 13.467a.89.89 0 0 0 1.185 1.33l2.712-2.429v15.7a2.24 2.24 0 0 0 2.238 2.238h4.752a2.1 2.1 0 0 0 2.1-2.1v-7.98a.323.323 0 0 1 .323-.323h4.8a.323.323 0 0 1 .323.323v7.984a2.1 2.1 0 0 0 2.1 2.1h4.752a2.544 2.544 0 0 0 2.238-2.8v-15.057l2.712 2.429a.895.895 0 0 0 1.257-.072.906.906 0 0 0 -.092-1.257zm-5.673 4.39v9.55c0 .638-.316 1.027-.461 1.027h-4.747a.323.323 0 0 1 -.323-.323v-7.97a2.1 2.1 0 0 0 -2.1-2.1h-4.796a2.1 2.1 0 0 0 -2.1 2.1v7.984a.323.323 0 0 1 -.323.323h-4.752a.462.462 0 0 1 -.461-.461v-17.298l9.991-8.925 10.077 9.01v7.082z" fill="#fff" transform="translate(0 -11.141)"/></svg>