<svg height="97.898" viewBox="0 0 55.643 97.898" width="55.643" xmlns="http://www.w3.org/2000/svg"><g fill="#fff"><path d="m27.82 0a27.82 27.82 0 0 0 -27.82 27.82v66.18a3.092 3.092 0 0 0 2.789 3.067c.1 0 .192.015.3.015h3.268a4.418 4.418 0 1 0 0-8.836 4.417 4.417 0 0 0 0-8.834h-.174v-10.2a3.092 3.092 0 0 1 6.183 0v19.36a9.174 9.174 0 0 0 .4 2.076 9.287 9.287 0 0 0 18.134-2.286 3.165 3.165 0 0 1 0-1.007 3.133 3.133 0 0 1 6.2.09 2.983 2.983 0 0 1 0 .826v6.559a3.092 3.092 0 0 0 6.183 0v-28.113a3.093 3.093 0 0 1 6.187 0v16.963a3.09 3.09 0 1 0 6.181 0v-55.86a27.82 27.82 0 0 0 -27.831-27.82zm10.119 20.839c2.492 0 4.515 2.475 4.515 5.527s-2.021 5.527-4.515 5.527-4.513-2.475-4.513-5.527 2.02-5.527 4.513-5.527zm-13.917 14.791c.707-2.005 8.627-2.011 9.34 0 .451 1.261-1.641 4.139-4.63 4.164-3.032.025-5.151-2.894-4.71-4.164zm-6.322-14.791c2.492 0 4.513 2.475 4.513 5.527s-2.021 5.527-4.513 5.527-4.517-2.475-4.517-5.527 2.028-5.527 4.523-5.527zm16.3 57.716a9.286 9.286 0 0 0 -9.273 8.806 3.305 3.305 0 0 1 0 .959 3.127 3.127 0 1 1 -6.179-1.02v-25.184a3.092 3.092 0 1 1 6.183 0v10.255a3.09 3.09 0 1 0 6.181 0v-3.162a3.092 3.092 0 1 1 6.183 0v9.891a9.29 9.29 0 0 0 -3.106-.541z"/><path d="m263.854 481.192a3.012 3.012 0 0 1 -.036.477 3.127 3.127 0 0 1 -6.168.067 3.006 3.006 0 0 1 0-1.091 3.127 3.127 0 0 1 6.167.067 3 3 0 0 1 .037.48z" transform="translate(-208.214 -386.416)"/></g></svg>