<svg height="32.007" viewBox="0 0 32 32.007" width="32" xmlns="http://www.w3.org/2000/svg"><g fill="#fff"><path d="m27.711 64.477h-12.47v-12.47a.9.9 0 0 0 -.907-.907 14.284 14.284 0 1 0 14.284 14.284.912.912 0 0 0 -.907-.907zm-13.377 13.377a12.47 12.47 0 0 1 -.907-24.906v12.436a.9.9 0 0 0 .907.907h12.436a12.482 12.482 0 0 1 -12.436 11.563z" transform="translate(-.05 -47.661)"/><path d="m265.366 14.261a14.306 14.306 0 0 0 -14.307-14.261.9.9 0 0 0 -.909.909v13.4a.9.9 0 0 0 .909.909h13.4a.9.9 0 0 0 .909-.909zm-13.4-.855v-11.549a12.5 12.5 0 0 1 11.549 11.549h-11.548z" transform="translate(-233.366)"/></g></svg>