<svg id="reload" xmlns="http://www.w3.org/2000/svg" width="14.329" height="15.672" viewBox="0 0 14.329 15.672">
  <g id="Group_33" data-name="Group 33">
    <path id="Path_65" data-name="Path 65" d="M23.9,3.108a6.248,6.248,0,0,1,8.122-.214l-1.859.07a.432.432,0,0,0,.016.864H30.2l2.855-.106a.431.431,0,0,0,.416-.432V3.239h0L33.36.416A.432.432,0,1,0,32.5.448l.067,1.77a7.106,7.106,0,0,0-9.242.25,7.108,7.108,0,0,0-2.138,6.948.43.43,0,0,0,.419.33.374.374,0,0,0,.1-.013.433.433,0,0,0,.317-.522A6.244,6.244,0,0,1,23.9,3.108Z" transform="translate(-20.982 0)" fill="#272d3b"/>
    <path id="Path_66" data-name="Path 66" d="M89.622,185.544a.432.432,0,1,0-.838.2,6.243,6.243,0,0,1-10.052,6.276l1.882-.17a.432.432,0,0,0-.08-.861l-2.845.256a.432.432,0,0,0-.39.47l.256,2.845a.431.431,0,0,0,.429.394.154.154,0,0,0,.038,0,.432.432,0,0,0,.39-.47l-.154-1.731a7.058,7.058,0,0,0,4.106,1.565c.122.006.243.01.362.01a7.107,7.107,0,0,0,6.9-8.785Z" transform="translate(-75.494 -179.287)" fill="#272d3b"/>
  </g>
</svg>
