<svg xmlns="http://www.w3.org/2000/svg" width="15.777" height="15.777" viewBox="0 0 15.777 15.777">
  <g id="Icon_ionic-ios-save" data-name="Icon ionic-ios-save" transform="translate(-4.5 -4.5)">
    <path id="Path_586" data-name="Path 586" d="M18.424,4.5h-.657a.33.33,0,0,0-.329.329V7.787c0,.181.312.329.493.329h.493a.33.33,0,0,0,.329-.329V4.829A.33.33,0,0,0,18.424,4.5Z" transform="translate(-5.378)" fill="#fff"/>
    <path id="Path_587" data-name="Path 587" d="M19.7,7.216,17.566,5.083a1.988,1.988,0,0,0-1.4-.583h-1.15a.664.664,0,0,0-.657.666V8.453a.659.659,0,0,1-.657.657H8.444a.659.659,0,0,1-.657-.657V5.166A.666.666,0,0,0,7.13,4.5H5.815A1.319,1.319,0,0,0,4.5,5.815V18.963a1.319,1.319,0,0,0,1.315,1.315H18.963a1.319,1.319,0,0,0,1.315-1.315V8.609A1.972,1.972,0,0,0,19.7,7.216ZM15.1,18.309a.7.7,0,0,1-.731.657H7.779a.7.7,0,0,1-.731-.657V14.365a.7.7,0,0,1,.731-.657h6.59a.7.7,0,0,1,.731.657v3.944Z" transform="translate(0 0)" fill="#fff"/>
  </g>
</svg>
