<svg height="32" viewBox="0 0 32 32" width="32" xmlns="http://www.w3.org/2000/svg"><g fill="#fff"><path d="m30.362 12.642-2.246-.381a12.683 12.683 0 0 0 -.9-2.179l1.321-1.852a1.971 1.971 0 0 0 -.214-2.547l-1.992-1.992a1.962 1.962 0 0 0 -1.4-.582 1.942 1.942 0 0 0 -1.143.368l-1.855 1.323a12.551 12.551 0 0 0 -2.259-.929l-.374-2.219a1.975 1.975 0 0 0 -1.953-1.652h-2.814a1.975 1.975 0 0 0 -1.952 1.651l-.388 2.273a12.37 12.37 0 0 0 -2.173.916l-1.838-1.323a1.974 1.974 0 0 0 -2.547.214l-2 1.992a1.979 1.979 0 0 0 -.212 2.547l1.337 1.878a12.388 12.388 0 0 0 -.889 2.186l-2.219.374a1.975 1.975 0 0 0 -1.652 1.953v2.814a1.975 1.975 0 0 0 1.651 1.952l2.273.388a12.37 12.37 0 0 0 .916 2.173l-1.317 1.831a1.971 1.971 0 0 0 .214 2.547l1.992 1.992a1.962 1.962 0 0 0 1.4.582 1.942 1.942 0 0 0 1.143-.368l1.878-1.337a12.646 12.646 0 0 0 2.112.869l.374 2.246a1.975 1.975 0 0 0 1.95 1.65h2.821a1.975 1.975 0 0 0 1.952-1.651l.381-2.249a12.682 12.682 0 0 0 2.179-.9l1.852 1.324a1.962 1.962 0 0 0 1.15.368 1.962 1.962 0 0 0 1.4-.582l1.992-1.992a1.979 1.979 0 0 0 .214-2.547l-1.327-1.857a12.592 12.592 0 0 0 .9-2.179l2.246-.374a1.975 1.975 0 0 0 1.654-1.953v-2.814a1.951 1.951 0 0 0 -1.638-1.952zm-.154 4.766a.173.173 0 0 1 -.147.174l-2.808.468a.9.9 0 0 0 -.722.662 10.7 10.7 0 0 1 -1.163 2.8.9.9 0 0 0 .04.983l1.651 2.326a.182.182 0 0 1 -.02.227l-1.992 1.992a.17.17 0 0 1 -.127.053.164.164 0 0 1 -.1-.033l-2.32-1.65a.9.9 0 0 0 -.983-.04 10.7 10.7 0 0 1 -2.8 1.163.887.887 0 0 0 -.662.722l-.475 2.808a.173.173 0 0 1 -.174.147h-2.813a.173.173 0 0 1 -.174-.147l-.468-2.808a.9.9 0 0 0 -.662-.722 11.112 11.112 0 0 1 -2.741-1.123.925.925 0 0 0 -.455-.12.88.88 0 0 0 -.521.167l-2.34 1.664a.2.2 0 0 1 -.1.033.179.179 0 0 1 -.127-.053l-1.991-1.992a.181.181 0 0 1 -.02-.227l1.644-2.306a.915.915 0 0 0 .04-.989 10.6 10.6 0 0 1 -1.178-2.795.915.915 0 0 0 -.722-.662l-2.828-.481a.173.173 0 0 1 -.147-.174v-2.814a.173.173 0 0 1 .147-.174l2.788-.468a.9.9 0 0 0 .729-.668 10.69 10.69 0 0 1 1.143-2.808.893.893 0 0 0 -.047-.976l-1.663-2.34a.182.182 0 0 1 .02-.227l1.992-1.992a.17.17 0 0 1 .127-.053.164.164 0 0 1 .1.033l2.307 1.644a.915.915 0 0 0 .989.04 10.6 10.6 0 0 1 2.794-1.172.915.915 0 0 0 .662-.722l.481-2.828a.173.173 0 0 1 .174-.147h2.814a.173.173 0 0 1 .174.147l.466 2.784a.9.9 0 0 0 .668.729 10.85 10.85 0 0 1 2.868 1.177.9.9 0 0 0 .983-.04l2.306-1.658a.2.2 0 0 1 .1-.033.179.179 0 0 1 .127.053l1.992 1.992a.181.181 0 0 1 .02.227l-1.649 2.319a.9.9 0 0 0 -.04.983 10.7 10.7 0 0 1 1.163 2.8.887.887 0 0 0 .722.662l2.808.475a.173.173 0 0 1 .147.174v2.814z" transform="translate(0 -.001)"/><path d="m143.017 136a6.917 6.917 0 1 0 6.917 6.917 6.922 6.922 0 0 0 -6.917-6.917zm0 12.027a5.109 5.109 0 1 1 5.109-5.109 5.113 5.113 0 0 1 -5.109 5.11z" transform="translate(-127.014 -126.922)"/></g></svg>