<svg height="32.94" viewBox="0 0 32 32.94" width="32" xmlns="http://www.w3.org/2000/svg"><g fill="#fff"><path d="m177.774 16.055v-15.129a.926.926 0 0 0 -1.852 0v15.129a4.7 4.7 0 0 0 0 9.217v6.735a.926.926 0 1 0 1.852 0v-6.735a4.7 4.7 0 0 0 0-9.217zm-.926 7.455a2.846 2.846 0 1 1 2.846-2.846 2.848 2.848 0 0 1 -2.846 2.846z" transform="translate(-160.813)"/><path d="m12.474 8.291v-7.365a.926.926 0 0 0 -1.852 0v7.365a4.7 4.7 0 0 0 0 9.217v14.5a.926.926 0 0 0 1.852 0v-14.508a4.7 4.7 0 0 0 0-9.21zm-.926 7.455a2.846 2.846 0 1 1 2.846-2.846 2.848 2.848 0 0 1 -2.846 2.846z" transform="translate(-6.85)"/><path d="m342.074 8.291v-7.365a.926.926 0 0 0 -1.852 0v7.365a4.7 4.7 0 0 0 0 9.217v14.5a.926.926 0 0 0 1.852 0v-14.508a4.7 4.7 0 0 0 0-9.21zm-.926 7.455a2.846 2.846 0 1 1 2.846-2.846 2.848 2.848 0 0 1 -2.846 2.846z" transform="translate(-313.846)"/></g></svg>