<svg height="247.483" viewBox="0 0 140.665 247.483" width="140.665" xmlns="http://www.w3.org/2000/svg"><g fill="#2d62ed"><path d="m70.328 0a70.328 70.328 0 0 0 -70.328 70.328v167.3a7.817 7.817 0 0 0 7.052 7.754c.252 0 .485.039.761.039h8.258a11.169 11.169 0 1 0 0-22.338 11.166 11.166 0 1 0 0-22.333h-.441v-25.791a7.817 7.817 0 0 1 15.63 0v48.95a23.191 23.191 0 0 0 1.013 5.249 23.477 23.477 0 0 0 45.834-5.782 8 8 0 0 1 0-2.544 7.919 7.919 0 0 1 15.664.228 7.541 7.541 0 0 1 0 2.089v16.58a7.817 7.817 0 0 0 15.63 0v-71.07a7.82 7.82 0 0 1 15.64 0v42.882a7.813 7.813 0 0 0 15.625 0v-141.213a70.328 70.328 0 0 0 -70.338-70.328zm25.58 52.682c6.3 0 11.414 6.257 11.414 13.973s-5.108 13.973-11.414 13.973-11.408-6.258-11.408-13.974 5.107-13.972 11.408-13.972zm-35.181 37.391c1.788-5.069 21.809-5.084 23.612 0 1.139 3.189-4.149 10.464-11.7 10.527-7.667.062-13.027-7.329-11.912-10.527zm-15.994-37.391c6.3 0 11.409 6.257 11.409 13.973s-5.108 13.972-11.409 13.972-11.418-6.257-11.418-13.973 5.128-13.973 11.433-13.973zm41.2 145.9a23.476 23.476 0 0 0 -23.442 22.262 8.355 8.355 0 0 1 0 2.423 7.905 7.905 0 1 1 -15.6-2.588v-63.652a7.817 7.817 0 1 1 15.63 0v25.924a7.813 7.813 0 0 0 15.625 0v-7.992a7.817 7.817 0 1 1 15.63 0v24.994a23.486 23.486 0 0 0 -7.851-1.367z"/><path d="m273.409 485.965a7.6 7.6 0 0 1 -.092 1.207 7.9 7.9 0 0 1 -15.591.17 7.6 7.6 0 0 1 0-2.758 7.9 7.9 0 0 1 15.591.17 7.567 7.567 0 0 1 .092 1.211z" transform="translate(-132.754 -246.372)"/></g></svg>