<svg id="star" xmlns="http://www.w3.org/2000/svg" width="15.7" height="14.99" viewBox="0 0 15.7 14.99">
  <path id="Path_81" data-name="Path 81" d="M15.679,16.676a.438.438,0,0,0-.351-.3l-4.9-.7-2.2-4.431a.437.437,0,0,0-.39-.242h0a.434.434,0,0,0-.39.245L5.27,15.7l-4.9.728a.438.438,0,0,0-.351.3.43.43,0,0,0,.113.445l3.554,3.445-.822,4.879A.437.437,0,0,0,3.3,26a.414.414,0,0,0,.2-.052l4.373-2.317,4.386,2.291a.445.445,0,0,0,.2.048h0a.437.437,0,0,0,.435-.435.34.34,0,0,0-.013-.1l-.847-4.85,3.532-3.464A.426.426,0,0,0,15.679,16.676Zm-4.415,3.451a.43.43,0,0,0-.122.387l.738,4.231L8.071,22.757a.441.441,0,0,0-.406,0l-3.8,2.011.712-4.237a.435.435,0,0,0-.126-.383l-3.081-2.99,4.25-.632a.432.432,0,0,0,.325-.238l1.888-3.857,1.914,3.848a.443.443,0,0,0,.329.238l4.254.606Z" transform="translate(0 -11.011)" fill="#272d3b"/>
</svg>
